#!OML:ASF Y:\EmotionMaleHayes\Project 1\Capture day 1\Session 1\Male1.ASF
:FULLY-SPECIFIED
:DEGREES
612
root 9.60601 16.9692 -0.588664 127.683 94.5965 130.497
lowerback 7.77839 1.45332 2.94903
upperback 8.66551 2.3869 2.28346
thorax 4.68252 1.45005 0.654819
lowerneck -22.9264 1.12871 3.97809
upperneck 19.6313 -1.16891 6.19548
head 10.106 0.602352 1.38574
rclavicle -2.54444e-014 -1.15295e-014
rhumerus -17.8711 13.1983 -88.2218
rradius 33.2395
rwrist -7.05138
rhand -10.4455 -35.0407
rfingers 7.12502
rthumb 15.5546 -64.4351
lclavicle -2.54444e-014 -1.15295e-014
lhumerus -24.5916 -18.2504 91.5196
lradius 27.8836
lwrist -6.2526
lhand -14.6349 -26.3723
lfingers 7.12502
lthumb 11.5169 3.29132
rfemur 5.78801 0.354176 26.5439
rtibia 14.2827
rfoot -19.6962 -1.91172
rtoes 13.5498
lfemur -18.8475 9.11304 -11.4075
ltibia 55.8078
lfoot -12.0862 6.11734
ltoes -7.78492
613
root 9.73266 16.9662 -0.589688 126.914 94.6567 129.722
lowerback 7.74049 1.52532 3.16397
upperback 8.63978 2.49024 2.2161
thorax 4.69077 1.51453 0.462706
lowerneck -22.7717 0.977469 3.65393
upperneck 19.5473 -1.26508 6.2392
head 10.049 0.531881 1.43599
rclavicle -3.26007e-014 6.36111e-015
rhumerus -18.1505 13.8789 -88.2964
rradius 34.0222
rwrist -7.13846
rhand -10.5667 -35.0579
rfingers 7.12502
rthumb 15.4378 -64.4614
lclavicle -3.26007e-014 6.36111e-015
lhumerus -24.405 -18.2963 91.4528
lradius 28.4337
lwrist -5.18682
lhand -14.9329 -26.1647
lfingers 7.12502
lthumb 11.2294 3.51471
rfemur 6.67577 0.30594 26.6052
rtibia 13.4974
rfoot -19.707 -1.83363
rtoes 13.6983
lfemur -19.6837 9.10278 -11.3784
ltibia 54.3483
lfoot -12.2115 6.44479
ltoes -7.30119
614
root 9.86054 16.9627 -0.589593 126.376 94.8196 129.16
lowerback 7.73199 1.5818 3.36221
upperback 8.62013 2.57302 2.20549
thorax 4.68651 1.56642 0.338687
lowerneck -22.8852 0.863244 3.40308
upperneck 19.6733 -1.3152 6.05102
head 10.1117 0.469351 1.40484
rclavicle 2.01766e-014 1.66979e-014
rhumerus -18.0827 14.8139 -88.3343
rradius 34.3862
rwrist -7.4303
rhand -11.0191 -34.6868
rfingers 7.12502
rthumb 15.0021 -64.1233
lclavicle 2.01766e-014 1.66979e-014
lhumerus -24.405 -18.0542 91.369
lradius 29.1635
lwrist -4.39477
lhand -15.5392 -26.2536
lfingers 7.12502
lthumb 10.6447 3.45679
rfemur 7.53063 0.194695 26.73
rtibia 12.7684
rfoot -19.706 -1.76643
rtoes 12.2496
lfemur -20.5029 9.14326 -11.2295
ltibia 52.8381
lfoot -12.6944 6.56325
ltoes -9.53656
615
root 9.98143 16.957 -0.590991 126.002 95.1905 128.73
lowerback 7.74484 1.68056 3.77289
upperback 8.55551 2.72126 2.16454
thorax 4.63782 1.66132 0.0608653
lowerneck -22.911 0.850146 3.38937
upperneck 19.771 -1.26629 5.73927
head 10.1452 0.453113 1.30454
rclavicle -9.24349e-015 -7.95139e-015
rhumerus -17.9312 15.3947 -88.4234
rradius 34.6797
rwrist -7.3731
rhand -11.1033 -34.4831
rfingers 7.12502
rthumb 14.9209 -63.9257
lclavicle -9.24349e-015 -7.95139e-015
lhumerus -24.4411 -17.8636 91.208
lradius 29.8609
lwrist -3.67144
lhand -15.9513 -26.4458
lfingers 7.12502
lthumb 10.2471 3.28457
rfemur 8.09424 0.0898135 27.0315
rtibia 12.6813
rfoot -20.1396 -1.62504
rtoes 10.3713
lfemur -21.3317 9.28504 -10.8685
ltibia 51.2349
lfoot -12.5874 6.94096
ltoes -10.8548
616
root 10.1015 16.9495 -0.592846 125.65 95.6124 128.303
lowerback 7.85757 1.82774 4.26776
upperback 8.3934 2.94247 2.09895
thorax 4.44158 1.79218 -0.299836
lowerneck -22.7177 0.853279 3.388
upperneck 19.764 -1.19984 5.52843
head 10.103 0.453056 1.23737
rclavicle -1.87852e-014 -5.96354e-015
rhumerus -18.0264 15.8738 -88.572
rradius 35.131
rwrist -7.34144
rhand -11.4597 -34.4589
rfingers 7.12502
rthumb 14.5776 -63.9266
lclavicle -1.87852e-014 -5.96354e-015
lhumerus -24.4966 -17.9184 91.0837
lradius 30.391
lwrist -2.91752
lhand -16.1405 -26.6511
lfingers 7.12502
lthumb 10.0646 3.08822
rfemur 8.582 0.0410555 27.3793
rtibia 12.3965
rfoot -20.3688 -1.47373
rtoes 8.80023
lfemur -22.1234 9.3901 -10.4383
ltibia 49.5666
lfoot -12.3461 7.23711
ltoes -9.73294
617
root 10.2282 16.9393 -0.595208 126.231 95.7781 128.801
lowerback 8.0348 1.98555 4.46449
upperback 8.17974 3.16837 2.02882
thorax 4.14118 1.90512 -0.506693
lowerneck -22.5747 0.729788 3.06957
upperneck 19.8293 -1.26041 5.53335
head 10.1008 0.4004 1.28138
rclavicle -8.94531e-015 7.15625e-015
rhumerus -18.1908 16.4209 -88.6378
rradius 35.4937
rwrist -7.21286
rhand -11.691 -34.3896
rfingers 7.12502
rthumb 14.3547 -63.8733
lclavicle -8.94531e-015 7.15625e-015
lhumerus -24.7035 -17.9969 91.1138
lradius 30.9759
lwrist -2.28684
lhand -16.4735 -26.7488
lfingers 7.12502
lthumb 9.74332 3.00583
rfemur 9.22777 -0.068724 27.3812
rtibia 11.8738
rfoot -20.4881 -1.23785
rtoes 7.2827
lfemur -22.8169 9.35729 -10.3312
ltibia 47.7736
lfoot -12.2025 7.4961
ltoes -8.04855
618
root 10.3598 16.9255 -0.600447 127.132 95.7823 129.65
lowerback 7.59532 2.03454 4.44883
upperback 8.3605 3.20683 1.97619
thorax 4.58197 1.93577 -0.523712
lowerneck -22.5494 0.642068 2.77676
upperneck 19.6775 -1.24831 5.39654
head 10.0386 0.357641 1.27923
rclavicle -6.95746e-016 6.36111e-015
rhumerus -17.7211 17.238 -88.5205
rradius 35.745
rwrist -7.1637
rhand -11.2555 -34.3766
rfingers 7.12502
rthumb 14.7744 -63.83
lclavicle -6.95746e-016 6.36111e-015
lhumerus -24.355 -17.7257 91.0055
lradius 31.476
lwrist -1.85826
lhand -16.9908 -26.8757
lfingers 7.12502
lthumb 9.24422 2.90169
rfemur 9.96301 -0.178494 27.2054
rtibia 11.3366
rfoot -20.6354 -1.04562
rtoes 6.65545
lfemur -23.32 9.21043 -10.4282
ltibia 45.7116
lfoot -12.0633 7.70067
ltoes -8.7163
